<svg version="1.1" xmlns="http://www.w3.org/2000/svg" xmlns:xlink="http://www.w3.org/1999/xlink" x="0" y="0" width="896.071" height="1049.577" viewBox="0, 0, 896.071, 1049.577">
  <g id="Layer_1" transform="translate(-178.964, -102.211)">
    <path d="M376.527,796.087 C376.527,796.21 376.597,796.322 376.708,796.376 C376.819,796.429 376.951,796.414 377.047,796.337 C380.897,793.077 384.357,789.247 388.217,785.997 Q401.727,774.657 409.357,766.747 Q418.247,757.547 422.727,750.357 C427.017,743.477 430.837,735.387 432.147,727.257 C432.199,726.902 432.165,726.539 432.047,726.197 Q427.857,714.747 427.197,712.427 Q422.587,695.987 426.727,680.137 Q428.137,674.717 430.447,670.847 C434.877,663.427 438.007,658.607 444.297,653.647 Q461.407,640.177 482.827,636.377 C486.817,635.667 488.497,639.147 489.207,642.747 Q492.137,657.727 492.407,660.987 Q493.887,678.967 487.177,695.837 C479.857,714.267 463.907,722.707 446.237,729.537 C445.878,729.674 445.616,729.989 445.547,730.367 Q444.877,733.917 443.147,738.577 Q436.697,755.937 424.567,770.207 C416.497,779.707 405.497,789.307 395.847,797.497 Q390.037,802.437 387.197,805.327 C383.347,809.247 379.697,812.347 376.317,816.437 C370.287,823.737 365.537,829.067 361.327,836.057 C359.487,839.097 355.627,844.877 353.357,849.517 Q339.237,878.267 335.177,910.277 C334.337,916.857 333.067,929.857 332.867,939.237 Q332.087,975.327 334.407,997.977 C336.787,1021.177 339.467,1039.247 346.027,1058.937 C346.151,1059.303 346.453,1059.579 346.827,1059.667 C363.827,1063.687 375.977,1076.427 377.847,1094.047 C377.947,1094.987 377.857,1096.777 377.907,1098.007 C377.919,1098.419 378.193,1098.777 378.587,1098.897 C384.097,1100.527 388.297,1101.877 392.777,1105.807 C395.807,1108.457 399.727,1112.117 401.827,1115.987 C406.597,1124.817 406.367,1132.227 406.457,1143.197 C406.507,1148.927 404.917,1151.747 398.837,1151.747 Q302.527,1151.647 185.107,1151.677 Q179.427,1151.677 179.257,1145.387 C179.057,1138.417 178.417,1129.807 180.047,1123.547 C182.637,1113.597 190.057,1104.797 199.797,1100.607 C200.429,1100.337 200.827,1099.704 200.797,1099.017 Q200.007,1083.497 210.337,1071.937 Q218.497,1062.797 229.917,1059.927 C230.547,1059.767 230.988,1059.203 230.987,1058.557 L230.987,656.647 C230.988,655.943 230.505,655.327 229.817,655.157 Q214.357,651.427 211.907,635.727 C210.247,625.077 217.397,614.747 226.927,610.757 C227.37,610.569 227.658,610.135 227.657,609.657 Q227.667,601.487 223.787,594.097 Q221.377,589.517 213.777,581.827 Q208.527,576.507 201.797,568.287 Q199.277,565.207 196.757,559.137 Q193.467,551.177 196.677,542.237 Q202.537,525.917 220.707,525.027 Q225.017,524.817 230.527,524.867 C231.046,524.875 231.485,524.484 231.537,523.967 Q236.197,479.667 248.717,437.837 Q251.877,427.277 255.207,419.467 C257.517,414.057 258.777,409.007 261.367,402.747 Q268.587,385.237 277.497,368.877 C286.897,351.627 297.087,335.407 308.657,320.057 Q319.157,306.127 325.047,299.447 Q342.127,280.067 361.117,262.717 Q366.737,257.577 371.607,253.837 C376.637,249.977 381.057,246.157 386.077,242.537 C407.487,227.107 430.687,213.817 455.007,203.197 Q479.727,192.417 498.997,187.197 Q527.857,179.387 544.437,176.867 Q566.877,173.467 590.097,172.287 C592.797,172.147 594.707,172.157 596.277,174.377 C598.697,177.777 598.667,182.717 594.867,184.977 Q593.737,185.647 591.427,185.797 C580.797,186.497 573.097,186.747 564.317,187.887 Q541.427,190.877 525.267,194.657 Q504.407,199.547 480.497,207.787 Q472.967,210.377 466.937,213.187 C461.427,215.737 454.877,218.007 449.047,220.937 Q438.507,226.217 425.197,233.477 Q416.637,238.147 410.367,242.547 C404.507,246.657 397.437,251.087 391.237,255.727 Q381.137,263.277 373.747,269.647 Q372.487,270.727 363.237,279.297 C355.847,286.147 349.357,293.017 343.157,299.527 Q338.207,304.707 335.747,308.117 C332.797,312.187 329.087,315.657 326.037,319.757 Q308.397,343.507 305.817,347.727 Q297.747,360.977 293.287,368.647 Q280.387,390.807 272.027,412.117 Q267.237,424.317 262.227,440.137 C253.537,467.587 248.177,495.567 244.957,524.197 C244.937,524.392 245.001,524.586 245.132,524.731 C245.264,524.876 245.451,524.958 245.647,524.957 L296.607,524.957 C297.238,524.956 297.765,524.48 297.827,523.857 Q300.927,492.077 309.147,461.497 Q309.497,460.167 308.517,455.757 C306.737,447.737 302.827,440.767 299.027,433.857 C297.707,431.437 299.207,429.317 301.187,427.467 Q311.527,417.787 321.687,406.157 C322.262,405.496 322.706,404.736 322.997,403.917 Q325.997,395.367 331.217,385.557 Q363.217,325.307 419.067,283.937 Q431.337,274.847 443.987,267.137 Q446.097,265.847 460.797,257.737 C476.337,249.177 493.487,242.237 509.247,236.917 Q544.217,225.107 581.497,222.067 Q588.467,221.507 592.337,220.447 C607.847,216.227 618.607,205.337 621.037,189.407 Q622.197,181.837 618.657,173.857 Q611.197,157.047 592.027,155.777 Q590.357,155.667 587.907,152.637 C587.697,152.369 587.566,152.051 587.527,151.717 Q587.127,147.657 589.957,145.817 C594.827,142.637 599.527,140.037 603.407,136.147 Q616.347,123.207 622.867,105.527 C624.207,101.907 629.217,101.327 632.007,103.417 Q633.347,104.417 634.827,108.127 C640.907,123.317 650.957,136.867 665.097,144.707 Q668.037,146.337 668.657,147.657 C670.087,150.697 669.057,153.467 666.137,155.387 C665.789,155.611 665.394,155.748 664.987,155.787 C657.107,156.557 650.127,158.487 644.727,163.877 Q641.797,166.807 638.517,172.817 C633.757,181.527 635.267,194.817 640.447,203.027 Q646.427,212.507 655.467,217.077 Q658.567,218.637 664.547,220.437 Q667.947,221.457 673.917,221.937 Q716.727,225.357 757.797,240.837 Q776.547,247.897 788.197,253.877 Q807.117,263.567 816.107,269.467 C822.387,273.597 829.887,278.357 835.877,282.737 Q863.797,303.107 885.917,328.147 Q909.597,354.947 926.477,387.847 Q930.587,395.857 933.167,403.737 C933.286,404.1 933.476,404.433 933.727,404.717 Q945.107,417.647 956.747,428.727 C958.677,430.567 957.927,433.547 956.557,435.837 Q950.877,445.357 948.157,455.047 C947.137,458.677 947.387,461.817 948.457,465.867 Q955.967,494.327 958.097,524.227 C958.123,524.616 958.447,524.918 958.837,524.917 L1009.927,524.917 C1010.13,524.917 1010.325,524.835 1010.465,524.689 C1010.605,524.544 1010.678,524.347 1010.667,524.147 Q1010.377,518.637 1008.667,504.307 Q1007.947,498.297 1006.967,494.257 C1006.007,490.267 1005.327,484.547 1004.537,480.917 Q996.417,443.327 985.077,415.207 Q959.657,352.127 914.647,301.897 Q895.147,280.137 872.437,261.887 C862.417,253.827 852.237,247.317 842.517,240.857 Q836.717,237.007 831.007,233.837 Q810.317,222.347 803.087,219.257 Q790.907,214.037 789.067,213.227 C779.657,209.067 773.457,207.437 763.467,203.757 Q758.777,202.027 751.987,200.087 Q732.867,194.617 712.307,190.947 Q699.647,188.677 689.317,187.767 Q677.287,186.697 666.127,185.957 Q662.887,185.737 661.367,184.687 C656.827,181.537 658.827,172.287 664.797,172.417 Q693.197,173.007 724.317,179.307 Q751.557,184.827 777.657,193.997 Q784.967,196.567 789.607,198.567 C795.007,200.897 799.217,202.227 805.397,205.097 Q839.507,220.917 867.457,241.097 C903.827,267.367 934.677,300.487 959.957,338.387 C996.847,393.717 1018.527,457.937 1024.237,524.227 C1024.273,524.602 1024.585,524.888 1024.957,524.887 Q1033.557,524.837 1034.077,524.857 C1046.737,525.337 1056.857,532.367 1059.357,544.917 C1061.347,554.897 1057.697,564.227 1050.867,571.467 C1047.987,574.507 1045.357,577.387 1039.477,583.817 Q1032.877,591.027 1030.767,595.417 Q1027.407,602.407 1027.047,609.507 C1027.01,610.185 1027.402,610.813 1028.027,611.077 C1049.877,620.507 1047.267,650.157 1024.127,655.627 C1023.563,655.762 1023.166,656.262 1023.167,656.837 L1023.167,1058.897 C1023.167,1059.327 1023.458,1059.704 1023.877,1059.817 C1042.047,1064.717 1054.647,1080.157 1053.317,1099.297 C1053.28,1099.822 1053.581,1100.313 1054.067,1100.517 Q1072.277,1108.237 1074.887,1128.517 Q1075.157,1130.587 1074.937,1147.207 C1074.93,1147.595 1074.834,1147.972 1074.657,1148.307 Q1073.017,1151.437 1069.837,1151.527 C1050.707,1152.047 1029.607,1151.627 1007.167,1151.647 Q875.337,1151.777 852.607,1151.637 C848.347,1151.607 846.807,1148.387 846.767,1144.237 C846.657,1133.207 846.257,1123.197 852.707,1113.867 Q860.257,1102.957 872.877,1099.327 C873.391,1099.183 873.726,1098.688 873.667,1098.157 Q873.287,1094.397 874.127,1090.467 C877.567,1074.417 888.857,1064.497 904.187,1059.637 C904.884,1059.42 905.464,1058.929 905.797,1058.277 Q906.987,1055.977 907.837,1052.747 Q914.647,1026.877 916.547,1011.217 C919.787,984.567 920.497,960.527 920.127,931.977 Q919.887,913.657 915.817,893.227 C911.827,873.147 904.537,852.547 893.067,835.487 Q879.397,815.127 860.437,798.427 Q846.057,785.757 839.157,779.237 Q830.687,771.237 822.657,759.197 Q813.637,745.677 810.007,730.487 C809.906,730.095 809.612,729.782 809.227,729.657 Q802.477,727.517 794.847,723.697 Q784.397,718.467 776.357,709.777 C773.257,706.427 771.357,702.487 768.877,698.197 C762.567,687.267 761.217,671.777 762.807,659.247 Q764.327,647.337 766.487,640.577 Q768.157,635.327 774.327,636.577 Q788.717,639.497 803.647,648.437 Q811.467,653.117 816.407,658.627 C826.527,669.927 832.107,683.387 830.887,699.037 Q829.787,712.967 823.727,725.207 C823.323,726.014 823.173,726.924 823.297,727.817 C824.447,736.457 828.747,743.997 833.787,752.237 Q837.497,758.317 844.907,765.987 Q852.877,774.247 858.297,778.797 C865.387,784.747 869.347,788.807 877.417,796.097 C877.513,796.183 877.651,796.205 877.769,796.154 C877.887,796.102 877.965,795.986 877.967,795.857 L877.967,656.057 C877.967,655.642 877.694,655.276 877.297,655.157 Q861.877,650.757 859.937,635.277 C858.637,624.897 864.487,615.937 873.467,611.617 C873.918,611.399 874.188,610.926 874.147,610.427 Q873.107,596.687 863.747,586.717 Q850.517,572.617 849.997,572.067 C839.437,561.247 836.607,544.557 847.317,532.997 Q854.077,525.707 864.287,525.047 C864.714,525.02 865.04,524.654 865.017,524.227 C864.777,519.647 863.617,516.577 861.837,509.217 Q860.397,503.237 858.987,498.867 Q848.247,465.507 829.087,437.117 Q825.967,432.487 822.807,428.587 C819.837,424.917 817.447,420.927 814.197,417.467 C810.487,413.517 803.737,405.677 798.767,400.777 Q776.297,378.677 748.477,362.057 Q742.257,358.347 737.297,356.047 C731.967,353.577 727.467,350.657 721.947,348.547 Q702.187,341.007 697.817,339.737 Q663.917,329.897 631.587,329.477 Q594.537,328.997 556.637,340.727 C549.717,342.877 542.357,346.017 534.987,348.807 Q531.627,350.087 526.577,352.647 Q514.987,358.537 509.907,361.297 C504.597,364.177 499.797,367.677 495.557,370.157 C491.217,372.697 486.187,377.287 480.967,380.787 Q479.007,382.097 475.247,385.227 Q451.437,405.027 433.147,429.967 Q429.207,435.337 427.057,438.927 Q424.777,442.747 423.077,444.957 C419.737,449.267 417.387,455.447 414.767,459.607 C411.377,464.997 409.387,470.597 406.187,477.207 Q404.417,480.857 402.367,486.417 Q395.507,504.987 391.247,524.107 C391.194,524.352 391.247,524.607 391.392,524.81 C391.537,525.012 391.761,525.142 392.007,525.167 C403.057,526.377 411.277,533.997 413.747,544.607 Q416.147,554.927 410.307,565.157 Q407.827,569.477 402.057,575.447 C391.147,586.727 381.597,594.977 380.737,610.407 C380.714,610.808 380.935,611.183 381.297,611.357 Q389.937,615.547 393.187,623.847 Q396.527,632.387 393.467,641.187 Q389.737,651.937 376.947,655.377 C376.699,655.441 376.527,655.667 376.527,655.927 L376.527,796.087 z M628.407,163.857 Q628.697,163.857 628.817,163.647 Q634.647,153.117 645.557,147.767 C645.753,147.673 645.888,147.484 645.914,147.268 C645.941,147.051 645.855,146.836 645.687,146.697 Q635.567,138.227 629.307,126.037 Q628.917,125.277 628.407,125.277 Q627.907,125.277 627.517,126.037 Q621.247,138.227 611.127,146.687 C610.959,146.826 610.873,147.041 610.899,147.258 C610.925,147.474 611.06,147.663 611.257,147.757 Q622.167,153.117 627.987,163.647 Q628.107,163.857 628.407,163.857 z M629.017,209.387 C628.817,209.209 628.545,209.135 628.284,209.188 C628.024,209.242 627.805,209.416 627.697,209.657 C625.177,215.197 621.527,218.897 616.457,223.097 C605.487,232.177 595.167,234.587 579.587,236.097 Q567.297,237.287 560.087,238.477 C551.877,239.827 539.777,242.147 530.497,245.057 C522.077,247.697 510.647,250.817 500.947,254.617 Q486.337,260.357 469.527,268.497 C463.367,271.487 454.687,277.097 450.367,279.437 Q443.067,283.367 436.427,288.357 C430.247,292.997 423.607,297.457 417.867,302.427 Q414.867,305.017 410.397,308.787 Q380.187,334.177 357.687,367.597 Q354.507,372.317 350.027,379.327 C346.917,384.207 345.017,388.297 341.717,394.117 C339.577,397.897 338.237,402.407 336.847,405.777 Q335.977,407.877 336.267,411.267 Q337.487,425.237 343.067,435.417 C344.637,438.277 345.117,441.347 342.437,443.177 Q332.317,450.087 324.367,460.837 C323.31,462.264 322.529,463.879 322.067,465.597 Q314.077,494.977 311.107,523.797 C311.079,524.085 311.173,524.37 311.368,524.584 C311.562,524.797 311.838,524.919 312.127,524.917 L376.367,524.917 C376.993,524.918 377.531,524.473 377.647,523.857 C380.077,510.987 383.467,497.487 388.257,485.437 Q392.527,474.707 394.857,468.907 C397.067,463.427 400.117,458.877 402.317,454.227 Q405.547,447.397 408.167,443.357 C411.227,438.637 413.627,433.807 417.497,428.867 C421.977,423.127 425.517,417.137 430.367,411.377 Q438.807,401.347 439.197,400.897 Q441.907,397.667 447.417,392.487 C453.317,386.927 456.407,383.177 461.817,378.717 C468.047,373.587 477.057,365.917 485.457,360.527 Q491.097,356.897 496.987,352.907 Q503.407,348.567 523.467,338.867 Q523.517,338.847 534.677,334.087 Q539.957,331.827 546.067,329.747 C570.607,321.377 596.077,316.527 621.467,315.847 C621.895,315.836 622.237,315.486 622.237,315.057 L622.237,305.327 C622.237,304.825 622.145,304.326 621.967,303.857 Q620.747,300.637 617.237,295.157 Q612.677,288.037 606.537,280.857 Q604.217,278.147 606.317,275.447 Q619.757,258.217 624.287,250.147 C624.471,249.824 624.724,249.545 625.027,249.327 C628.957,246.597 631.387,248.287 633.787,252.247 Q639.177,261.157 645.967,269.957 C648.697,273.507 653.367,277.097 649.337,281.717 Q641.587,290.587 635.057,303.327 C634.814,303.8 634.687,304.322 634.687,304.847 L634.687,315.207 C634.687,315.494 634.915,315.727 635.197,315.727 Q651.927,316.007 671.337,319.377 Q675.577,320.117 689.177,323.187 Q692.237,323.877 707.617,328.587 Q717.997,331.767 725.677,335.217 Q742.667,342.837 753.477,349.117 Q766.697,356.787 783.187,369.047 C787.797,372.467 792.357,376.847 797.077,380.697 C802.967,385.517 808.127,391.227 813.677,396.527 Q816.027,398.787 819.807,403.267 Q830.207,415.617 832.657,418.877 Q858.867,453.837 872.147,495.927 Q876.247,508.897 878.707,524.087 C878.786,524.589 879.219,524.958 879.727,524.957 L944.127,524.957 C944.321,524.958 944.508,524.877 944.64,524.735 C944.773,524.592 944.841,524.401 944.827,524.207 C943.447,504.057 939.867,487.307 934.427,463.887 Q934.167,462.777 931.857,459.747 Q923.837,449.247 915.897,444.207 C912.987,442.357 911.337,440.137 913.097,437.007 Q918.517,427.357 920.057,417.247 Q921.067,410.547 919.957,407.017 Q917.987,400.767 915.957,396.567 Q908.047,380.177 896.647,363.927 Q877.677,336.887 854.327,315.537 C849.727,311.337 845.397,308.017 841.577,304.547 Q837.817,301.147 831.627,296.707 C824.027,291.247 817.597,286.047 809.617,281.567 C800.167,276.247 792.167,271.087 782.637,266.577 C768.657,259.967 755.027,253.817 740.497,249.317 Q727.947,245.427 720.007,243.337 Q702.427,238.687 681.077,236.507 Q666.837,235.047 661.207,233.517 Q647.777,229.857 636.727,219.577 Q632.667,215.797 629.357,209.907 Q629.127,209.487 629.017,209.387 z M618.727,278.007 Q618.727,278.377 618.837,278.517 Q623.837,284.617 627.897,291.367 Q628.027,291.577 628.327,291.577 Q628.637,291.577 628.767,291.367 Q632.837,284.627 637.857,278.537 Q637.967,278.407 637.967,278.037 Q637.967,277.667 637.857,277.537 Q632.857,271.437 628.797,264.687 Q628.677,264.477 628.367,264.477 Q628.057,264.477 627.937,264.687 Q623.857,271.417 618.837,277.507 Q618.727,277.647 618.727,278.007 z M325.977,419.627 C325.931,419.296 325.698,419.021 325.378,418.922 C325.059,418.823 324.711,418.919 324.487,419.167 L311.567,433.367 C311.379,433.572 311.354,433.88 311.507,434.117 Q316.397,441.707 318.157,448.897 C318.204,449.099 318.358,449.259 318.557,449.315 C318.757,449.371 318.971,449.315 319.117,449.167 L330.847,437.427 C331.103,437.178 331.163,436.788 330.997,436.467 Q327.257,429.207 325.977,419.627 z M931.247,419.777 Q929.807,428.297 925.647,436.327 C925.311,436.964 925.451,437.75 925.987,438.237 L937.437,448.647 C937.577,448.776 937.773,448.823 937.956,448.772 C938.139,448.721 938.283,448.58 938.337,448.397 Q940.567,440.537 944.857,434.027 C945.189,433.527 945.122,432.861 944.697,432.437 L931.847,419.587 C931.756,419.493 931.62,419.459 931.494,419.499 C931.368,419.539 931.273,419.646 931.247,419.777 z M367.307,608.147 C368.417,599.967 371.487,590.417 376.937,583.277 C381.857,576.817 386.067,572.527 394.317,563.837 C399.467,558.407 403.447,551.117 398.737,543.867 C394.087,536.707 386.667,538.437 379.537,538.477 C367.927,538.547 354.157,538.217 333.567,538.407 Q318.347,538.537 227.587,538.387 Q218.007,538.377 216.007,539.127 C207.257,542.427 206.697,552.997 211.757,559.857 Q215.787,565.307 221.327,570.447 Q222.387,571.437 230.777,582.087 C236.967,589.957 240.187,598.837 241.187,608.027 C241.248,608.606 241.74,609.046 242.327,609.047 L366.397,608.937 C366.854,608.937 367.242,608.6 367.307,608.147 z M887.367,608.287 C887.431,608.74 887.819,609.077 888.277,609.077 L1012.527,609.077 C1013.114,609.076 1013.606,608.636 1013.667,608.057 C1014.657,598.847 1017.877,589.957 1024.067,582.067 Q1032.457,571.397 1033.517,570.407 Q1039.067,565.247 1043.097,559.787 C1048.157,552.917 1047.587,542.327 1038.817,539.037 Q1036.817,538.287 1027.227,538.307 Q936.337,538.537 921.097,538.417 C900.477,538.247 886.687,538.587 875.057,538.527 C867.917,538.497 860.487,536.767 855.837,543.947 C851.127,551.207 855.117,558.507 860.277,563.937 C868.547,572.637 872.767,576.927 877.697,583.387 C883.167,590.537 886.247,600.097 887.367,608.287 z M381.567,632.317 C381.567,626.927 377.197,622.557 371.807,622.557 L235.107,622.557 C229.717,622.557 225.347,626.927 225.347,632.317 L225.347,632.857 C225.347,638.247 229.717,642.617 235.107,642.617 L371.807,642.617 C377.197,642.617 381.567,638.247 381.567,632.857 L381.567,632.317 z M1029.477,632.197 C1029.477,626.868 1025.156,622.547 1019.827,622.547 L882.987,622.547 C877.657,622.547 873.337,626.868 873.337,632.197 L873.337,632.937 C873.337,638.267 877.657,642.587 882.987,642.587 L1019.827,642.587 C1025.156,642.587 1029.477,638.267 1029.477,632.937 L1029.477,632.197 z M477.327,650.967 Q460.397,655.437 448.307,667.937 C443.577,672.827 441.607,677.157 439.197,683.797 C435.507,693.987 438.157,706.657 441.677,716.597 C441.773,716.868 441.976,717.089 442.238,717.207 C442.5,717.326 442.799,717.333 443.067,717.227 C449.967,714.487 458.427,711.157 463.827,705.837 Q471.417,698.377 474.187,692.867 C480.597,680.157 480.387,666.017 478.377,651.667 C478.345,651.428 478.211,651.214 478.01,651.08 C477.809,650.946 477.56,650.905 477.327,650.967 z M777.257,651.517 Q772.297,670.877 778.997,689.077 Q781.987,697.187 790.087,705.117 C795.827,710.727 804.647,714.527 812.417,717.627 C812.66,717.725 812.931,717.72 813.169,717.615 C813.407,717.509 813.59,717.311 813.677,717.067 Q815.147,712.887 816.817,706.327 C819.727,694.837 817.647,679.917 809.647,670.687 Q796.797,655.867 778.207,650.957 C778.005,650.905 777.791,650.935 777.612,651.04 C777.434,651.145 777.306,651.317 777.257,651.517 z M891.517,656.297 L891.517,810.397 C891.517,811.134 891.776,811.845 892.247,812.407 Q920.377,845.837 928.197,889.307 C928.243,889.541 928.437,889.718 928.675,889.741 C928.912,889.764 929.137,889.628 929.227,889.407 C934.747,875.357 939.297,860.767 941.837,845.387 Q944.097,831.647 944.707,826.557 Q946.217,813.887 946.397,796.987 Q946.627,775.317 946.447,738.327 C946.447,737.997 946.338,737.677 946.137,737.417 Q937.497,726.137 930.157,717.907 C928.457,716.007 926.957,713.617 928.637,711.517 Q938.537,699.167 946.097,687.657 Q948.017,684.737 949.417,684.177 Q951.987,683.147 954.367,684.377 C954.545,684.469 954.698,684.599 954.817,684.757 Q962.557,694.987 968.697,702.867 Q971.637,706.647 973.837,709.037 C975.757,711.107 976.807,713.537 975.097,715.727 Q964.287,729.587 959.967,737.277 C959.83,737.513 959.76,737.783 959.767,738.057 Q959.797,740.017 959.847,793.487 C959.887,834.247 951.687,874.067 934.467,910.637 Q933.007,913.727 933.127,917.477 C934.167,950.337 933.807,983.357 929.477,1015.207 Q926.567,1036.627 921.207,1054.717 Q920.677,1056.507 919.947,1057.867 C919.866,1058.019 919.871,1058.201 919.959,1058.348 C920.047,1058.496 920.205,1058.586 920.377,1058.587 L1009.107,1058.587 C1009.527,1058.587 1009.867,1058.242 1009.867,1057.817 L1009.867,656.427 C1009.867,656.19 1009.674,655.997 1009.437,655.997 L891.817,655.997 C891.651,655.997 891.517,656.131 891.517,656.297 z M363.057,656.427 C363.057,656.201 362.873,656.017 362.647,656.017 L245.087,656.017 C244.711,656.017 244.407,656.322 244.407,656.697 L244.407,1058.077 C244.407,1058.353 244.631,1058.577 244.907,1058.577 L331.497,1058.577 C331.652,1058.577 331.797,1058.504 331.89,1058.382 C331.983,1058.26 332.011,1058.102 331.967,1057.957 Q326.087,1038.577 323.277,1017.847 Q316.347,966.587 320.697,915.207 C320.776,914.314 320.635,913.415 320.287,912.587 C312.007,892.827 304.727,875.727 300.597,855.247 Q294.857,826.817 294.597,803.217 Q294.297,775.807 294.657,738.047 C294.663,737.277 294.444,736.523 294.027,735.877 Q287.627,725.857 280.457,716.697 Q277.997,713.557 280.077,710.897 Q287.247,701.717 299.187,686.087 C302.767,681.397 306.527,683.797 308.867,687.957 Q309.737,689.507 311.697,692.147 Q320.257,703.597 325.527,711.537 Q327.087,713.887 325.647,715.797 Q319.737,723.637 309.117,736.257 Q307.837,737.777 307.837,739.477 Q307.857,780.227 307.777,787.167 Q307.477,811.347 309.157,824.727 Q312.157,848.737 316.987,865.427 Q320.087,876.167 320.317,877.127 C321.357,881.397 323.167,884.997 324.497,889.037 C324.569,889.258 324.779,889.405 325.012,889.395 C325.245,889.386 325.443,889.223 325.497,888.997 C328.777,875.407 332.077,862.617 338.447,849.627 Q345.027,836.207 348.847,830.257 Q351.887,825.537 361.937,812.457 C362.234,812.067 362.461,811.623 362.607,811.147 Q363.157,809.337 363.127,804.977 Q362.997,786.047 363.177,699.477 Q363.237,667.837 363.057,656.427 z M303.457,699.807 C303.392,699.718 303.289,699.664 303.179,699.662 C303.069,699.66 302.964,699.71 302.897,699.797 L292.597,713.187 C292.505,713.307 292.501,713.473 292.587,713.597 L301.627,726.607 C301.688,726.695 301.787,726.75 301.895,726.756 C302.002,726.762 302.106,726.718 302.177,726.637 L313.037,714.067 C313.144,713.948 313.157,713.77 313.067,713.637 L303.457,699.807 z M941.667,713.677 C941.586,713.794 941.594,713.95 941.687,714.057 L952.457,726.657 C952.519,726.731 952.611,726.771 952.707,726.767 C952.803,726.763 952.891,726.715 952.947,726.637 L962.497,713.277 C962.578,713.161 962.57,713.004 962.477,712.897 L951.707,700.287 C951.645,700.214 951.553,700.173 951.457,700.177 C951.361,700.181 951.272,700.229 951.217,700.307 L941.667,713.677 z M214.097,1097.737 L364.717,1097.997 C364.866,1097.997 364.987,1097.876 364.987,1097.727 L364.987,1097.017 C365.007,1083.355 353.349,1072.261 338.947,1072.237 L239.947,1072.057 C225.542,1072.034 213.847,1083.093 213.827,1096.757 L213.827,1097.467 C213.827,1097.616 213.948,1097.737 214.097,1097.737 z M979.047,1097.787 L1039.187,1097.927 C1039.747,1097.925 1040.216,1097.504 1040.277,1096.947 C1041.377,1087.197 1033.627,1077.427 1025.157,1074.037 Q1021.167,1072.447 1010.817,1072.297 Q994.797,1072.077 978.817,1072.287 Q970.567,1072.187 962.337,1072.097 C947.147,1071.927 931.507,1072.697 917.717,1072.017 Q910.547,1071.667 906.557,1072.867 Q894.717,1076.437 888.757,1086.917 C886.847,1090.277 886.757,1093.097 886.997,1097.037 C887.018,1097.441 887.352,1097.758 887.757,1097.757 L979.047,1097.787 z M193.567,1138.117 L391.907,1138.117 C392.536,1138.117 393.047,1137.607 393.047,1136.977 L393.047,1132.857 C393.047,1121.104 383.416,1111.577 371.537,1111.577 L213.937,1111.577 C202.057,1111.577 192.427,1121.104 192.427,1132.857 L192.427,1136.977 C192.427,1137.607 192.937,1138.117 193.567,1138.117 z M1061.597,1137.387 Q1061.957,1131.947 1061.427,1127.127 C1060.547,1119.057 1052.727,1113.377 1045.417,1111.617 C1045.277,1111.584 1045.133,1111.567 1044.987,1111.567 L880.787,1111.567 C879.911,1111.567 879.037,1111.681 878.187,1111.907 Q858.867,1116.987 860.027,1137.327 C860.053,1137.738 860.39,1138.058 860.797,1138.057 L1060.887,1138.057 C1061.264,1138.058 1061.576,1137.764 1061.597,1137.387 z" fill="#2a6b4a"/>
    <path d="M300.147,595.397 L285.027,578.647 C283.228,576.653 283.193,573.632 284.947,571.597 L300.147,553.997 C301.164,552.824 302.641,552.153 304.194,552.159 C305.746,552.165 307.219,552.847 308.227,554.027 L323.327,571.687 C325.072,573.729 325.025,576.751 323.217,578.737 L308.047,595.407 C307.035,596.521 305.599,597.155 304.095,597.154 C302.59,597.152 301.156,596.514 300.147,595.397 z M303.227,582.187 C303.426,582.408 303.709,582.534 304.007,582.534 C304.304,582.534 304.588,582.408 304.787,582.187 L310.737,575.647 C311.099,575.247 311.099,574.637 310.737,574.237 L304.817,567.677 C304.618,567.456 304.334,567.33 304.037,567.33 C303.739,567.33 303.456,567.456 303.257,567.677 L297.307,574.227 C296.944,574.627 296.944,575.237 297.307,575.637 L303.227,582.187 z" fill="#2a6b4a"/>
    <path d="M947.377,595.157 L931.317,579.097 C929.281,577.067 929.202,573.794 931.137,571.667 L947.177,554.027 C948.217,552.885 949.697,552.245 951.241,552.27 C952.785,552.295 954.244,552.982 955.247,554.157 L970.117,571.547 C971.881,573.609 971.834,576.661 970.007,578.667 L955.167,594.977 C954.176,596.067 952.782,596.703 951.31,596.737 C949.838,596.771 948.417,596.2 947.377,595.157 z M950.167,582.197 C950.348,582.379 950.596,582.479 950.853,582.473 C951.11,582.468 951.354,582.357 951.527,582.167 L957.737,575.357 C958.07,574.987 958.057,574.421 957.707,574.067 L951.207,567.567 C951.025,567.385 950.777,567.285 950.52,567.291 C950.263,567.297 950.02,567.407 949.847,567.597 L943.637,574.417 C943.304,574.787 943.317,575.353 943.667,575.707 L950.167,582.197 z" fill="#2a6b4a"/>
    <path d="M251.767,569.317 C251.937,569.202 252.028,569 252,568.797 C251.973,568.593 251.832,568.422 251.637,568.357 C246.817,566.757 241.237,566.937 235.197,566.957 C234.873,566.957 234.548,566.9 234.237,566.787 C229.557,565.017 229.007,559.187 233.537,557.077 C233.824,556.94 234.141,556.865 234.467,556.857 Q245.077,556.577 248.367,557.007 Q267.407,559.517 270.807,578.097 C271.997,584.577 262.417,586.807 260.957,578.797 C260.894,578.45 260.694,578.143 260.403,577.943 C260.112,577.744 259.753,577.67 259.407,577.737 C256.187,578.337 252.517,579.587 250.257,577.987 Q246.417,575.257 249.167,571.137 C249.193,571.111 249.22,571.087 249.247,571.067 L251.767,569.317 z" fill="#2a6b4a"/>
    <path d="M897.777,569.427 C897.947,569.311 898.036,569.108 898.006,568.903 C897.977,568.699 897.833,568.53 897.637,568.467 C892.797,566.867 887.197,567.057 881.137,567.087 C880.813,567.087 880.488,567.03 880.177,566.917 C875.477,565.147 874.917,559.297 879.457,557.167 C879.747,557.029 880.067,556.954 880.397,556.947 Q891.037,556.647 894.347,557.077 Q913.457,559.567 916.897,578.207 C918.097,584.717 908.487,586.967 907.007,578.927 C906.944,578.58 906.744,578.273 906.453,578.073 C906.162,577.874 905.803,577.8 905.457,577.867 C902.227,578.477 898.537,579.737 896.267,578.127 Q892.417,575.397 895.167,571.257 C895.193,571.231 895.22,571.207 895.247,571.187 L897.777,569.427 z" fill="#2a6b4a"/>
    <path d="M1003.007,569.297 L1005.517,571.027 C1005.543,571.047 1005.57,571.071 1005.597,571.097 Q1008.337,575.187 1004.537,577.907 C1002.297,579.507 998.637,578.277 995.437,577.687 C995.095,577.623 994.741,577.698 994.454,577.895 C994.167,578.092 993.97,578.395 993.907,578.737 C992.477,586.707 982.947,584.527 984.107,578.067 Q987.427,559.597 1006.347,557.047 Q1009.617,556.607 1020.157,556.857 C1020.483,556.864 1020.8,556.939 1021.087,557.077 C1025.597,559.167 1025.067,564.957 1020.417,566.727 C1020.11,566.842 1019.788,566.903 1019.467,566.907 C1013.467,566.897 1007.927,566.737 1003.137,568.347 C1002.947,568.415 1002.81,568.583 1002.783,568.783 C1002.756,568.982 1002.842,569.181 1003.007,569.297 z" fill="#2a6b4a"/>
    <path d="M356.767,569.357 L359.257,571.097 C359.283,571.117 359.31,571.141 359.337,571.167 Q362.037,575.237 358.247,577.927 C356.007,579.507 352.377,578.257 349.197,577.657 C348.856,577.59 348.502,577.662 348.215,577.857 C347.927,578.053 347.73,578.355 347.667,578.697 C346.207,586.607 336.747,584.387 337.937,577.977 Q341.347,559.627 360.157,557.207 Q363.417,556.787 373.897,557.097 C374.22,557.106 374.533,557.181 374.817,557.317 C379.287,559.417 378.727,565.177 374.097,566.907 C373.793,567.018 373.474,567.076 373.157,567.077 C367.187,567.037 361.677,566.847 356.907,568.417 C356.715,568.479 356.574,568.644 356.545,568.844 C356.515,569.043 356.601,569.242 356.767,569.357 z" fill="#2a6b4a"/>
    <path d="M627.327,897.427 Q625.007,897.427 567.747,897.237 C567.589,897.237 567.434,897.22 567.287,897.187 Q563.937,896.377 562.817,893.247 Q562.297,891.797 563.187,887.247 Q565.937,873.307 568.247,862.517 Q587.627,771.937 588.897,766.077 C589.03,765.459 588.779,764.818 588.257,764.447 Q566.327,748.927 559.987,723.947 Q555.727,707.177 559.537,691.487 Q563.677,674.437 573.977,662.337 C587.497,646.447 607.017,636.827 627.877,636.867 C648.737,636.917 668.227,646.617 681.677,662.567 Q691.917,674.707 695.987,691.777 Q699.737,707.487 695.397,724.237 Q688.957,749.187 666.957,764.617 C666.439,764.986 666.188,765.622 666.317,766.237 Q667.557,772.107 686.557,862.767 Q688.817,873.567 691.507,887.517 Q692.377,892.077 691.857,893.517 Q690.717,896.647 687.367,897.437 C687.219,897.47 687.065,897.487 686.907,897.487 Q629.647,897.437 627.327,897.427 z M627.747,650.867 Q622.527,650.857 620.837,651.077 C598.627,653.907 581.027,668.577 573.987,689.737 Q567.817,708.277 575.257,727.647 C580.197,740.497 588.907,749.407 600.187,756.397 C603.217,758.277 603.687,761.677 602.917,765.017 C599.147,781.437 594.467,804.857 590.767,821.637 Q582.907,857.287 577.697,882.927 C577.658,883.115 577.705,883.31 577.825,883.459 C577.945,883.608 578.125,883.695 578.317,883.697 Q581.677,883.727 627.467,883.777 Q673.257,883.837 676.617,883.807 C676.806,883.805 676.984,883.718 677.104,883.572 C677.224,883.425 677.272,883.233 677.237,883.047 Q672.087,857.397 664.317,821.727 C660.657,804.937 656.027,781.507 652.297,765.077 C651.537,761.737 652.017,758.337 655.047,756.467 C666.347,749.497 675.077,740.607 680.047,727.767 Q687.537,708.417 681.407,689.867 C674.417,668.687 656.857,653.977 634.647,651.087 Q632.957,650.867 627.747,650.867 z" fill="#2a6b4a"/>
    <path d="M843.797,841.847 C843.579,841.637 843.247,841.604 842.997,841.767 Q839.507,844.027 835.057,846.657 C821.927,854.407 805.977,856.637 791.837,853.237 Q785.277,851.667 777.677,847.127 Q764.837,839.467 755.637,827.437 C753.387,824.497 753.227,821.837 756.097,819.267 C760.657,815.157 765.827,812.147 772.227,808.387 C786.877,799.797 806.097,796.937 822.057,804.677 Q830.077,808.567 835.227,813.337 Q841.617,819.247 848.037,827.867 C848.375,828.312 848.772,828.709 849.217,829.047 C855.947,834.137 859.837,839.177 864.947,846.337 Q868.497,851.307 870.957,855.927 Q880.067,873.057 884.017,888.737 Q886.447,898.377 887.857,910.647 Q888.987,920.497 888.657,932.857 Q887.767,966.747 877.367,998.017 Q876.257,1001.327 870.217,1016.267 Q866.327,1025.907 861.857,1033.977 Q857.267,1042.237 849.897,1053.927 C847.307,1058.017 844.157,1061.557 841.307,1065.837 Q840.057,1067.707 837.687,1070.467 C833.467,1075.387 826.847,1083.347 820.887,1088.437 C817.617,1091.237 814.777,1094.407 811.337,1097.337 Q803.057,1104.397 792.597,1111.977 Q786.437,1116.447 781.207,1119.217 C774.017,1123.037 767.577,1127.177 759.447,1130.857 Q738.047,1140.557 714.577,1145.927 Q703.207,1148.527 682.527,1150.717 Q671.517,1151.877 650.117,1151.727 Q639.077,1151.657 589.597,1151.647 Q579.777,1151.647 559.617,1149.087 Q531.387,1145.517 506.517,1135.627 Q500.737,1133.327 496.187,1131.117 C491.837,1128.997 487.317,1127.207 482.657,1124.547 Q471.057,1117.937 462.387,1112.267 C457.107,1108.807 452.847,1104.897 447.907,1101.277 Q445.807,1099.747 442.307,1096.637 Q410.577,1068.527 391.057,1030.767 C378.687,1006.837 369.887,979.457 366.597,952.727 C365.727,945.687 365.807,937.847 365.377,930.237 Q365.117,925.677 365.407,921.217 Q366.727,900.517 371.017,884.917 Q372.457,879.667 377.397,867.297 C379.387,862.297 382.347,858.287 384.737,853.417 Q385.877,851.087 387.997,848.017 Q393.477,840.047 397.827,835.467 Q400.187,832.987 405.957,828.757 C406.227,828.56 406.452,828.304 406.617,828.007 Q408.427,824.687 415.017,817.337 C425.917,805.187 440.947,798.737 457.457,800.397 Q471.907,801.847 482.957,808.597 Q491.847,814.017 497.857,818.877 Q502.417,822.567 498.987,827.077 Q487.647,841.987 471.297,850.037 C460.557,855.317 446.787,856.307 435.387,853.167 Q426.867,850.817 424.787,849.787 Q418.737,846.807 411.777,842.057 C411.305,841.744 410.68,841.806 410.287,842.207 C401.307,851.307 395.127,861.427 389.787,872.717 Q388.117,876.267 385.497,884.707 Q378.987,905.737 378.677,924.477 C377.717,982.197 402.607,1039.227 443.687,1079.287 Q490.777,1125.217 559.347,1135.747 Q564.677,1136.567 580.817,1137.637 Q588.227,1138.137 602.367,1138.077 Q612.677,1138.027 665.837,1137.987 Q678.707,1137.977 696.557,1135.497 Q712.387,1133.287 726.637,1128.847 Q746.957,1122.507 764.787,1112.907 C772.487,1108.767 779.597,1103.797 787.287,1099.197 Q788.887,1098.227 795.877,1092.277 Q800.647,1088.207 804.287,1085.177 Q816.147,1075.317 826.097,1062.717 Q829.377,1058.557 831.857,1055.637 C835.747,1051.047 837.867,1046.617 841.427,1041.907 Q843.647,1038.967 845.477,1035.427 C850.747,1025.227 855.387,1017.477 859.327,1007.817 Q871.677,977.577 874.757,944.417 Q877.777,911.827 867.777,880.967 Q866.677,877.577 862.747,869.077 Q859.327,861.707 856.647,857.657 Q850.177,847.917 843.797,841.847 z M770.707,825.037 C774.317,829.827 779.777,833.397 785.407,836.607 Q789.767,839.087 793.667,840.117 C801.477,842.167 808.747,843.057 816.607,840.597 Q826.317,837.567 833.947,832.057 C834.137,831.916 834.264,831.706 834.3,831.474 C834.336,831.241 834.277,831.005 834.137,830.817 Q828.667,823.387 820.737,818.467 C805.157,808.787 784.697,813.887 770.857,824.017 C770.701,824.13 770.598,824.301 770.569,824.493 C770.541,824.685 770.591,824.881 770.707,825.037 z M483.257,824.907 C483.375,824.753 483.425,824.558 483.397,824.366 C483.369,824.174 483.264,824.001 483.107,823.887 C469.267,813.877 448.867,808.917 433.407,818.637 Q425.547,823.587 420.137,831.007 C419.997,831.197 419.939,831.436 419.977,831.669 C420.014,831.902 420.144,832.111 420.337,832.247 Q427.957,837.687 437.647,840.647 C445.487,843.057 452.717,842.127 460.487,840.047 Q464.357,838.997 468.687,836.507 C474.277,833.277 479.697,829.697 483.257,824.907 z" fill="#2a6b4a"/>
  </g>
</svg>
